<?xml version="1.0" standalone="no"?>
<!DOCTYPE svg PUBLIC "-//W3C//DTD SVG 20010904//EN"
 "http://www.w3.org/TR/2001/REC-SVG-20010904/DTD/svg10.dtd">
<svg version="1.0" xmlns="http://www.w3.org/2000/svg"
 width="250.000000pt" height="52.000000pt" viewBox="0 0 250.000000 52.000000"
 preserveAspectRatio="xMidYMid meet">

<g transform="translate(0.000000,52.000000) scale(0.100000,-0.100000)"
fill="#000000" stroke="none">
<path d="M1325 414 c-22 -7 -32 -13 -23 -13 9 -1 29 4 43 9 21 8 36 6 68 -8
50 -23 74 -48 93 -99 l15 -38 -6 35 c-5 33 -51 92 -85 109 -31 16 -66 18 -105
5z"/>
<path d="M1333 373 c-3 -7 -9 -10 -14 -7 -5 3 -9 0 -9 -6 0 -8 7 -9 18 -5 19
9 28 9 84 2 21 -2 35 0 32 5 -3 5 -11 8 -17 7 -7 -1 -23 -1 -37 0 -19 1 -21 4
-11 10 10 6 6 9 -14 8 -15 -1 -30 -8 -32 -14z"/>
<path d="M100 245 c0 -112 3 -135 15 -135 11 0 15 21 17 107 l3 107 80 -107
c43 -59 85 -107 92 -107 10 0 13 32 13 135 0 112 -3 135 -15 135 -11 0 -15
-20 -17 -102 l-3 -103 -78 103 c-43 56 -84 102 -92 102 -12 0 -15 -23 -15
-135z"/>
<path d="M466 372 c-6 -10 -96 -251 -96 -257 0 -3 6 -5 14 -5 8 0 20 16 27 35
13 35 13 35 75 35 61 0 63 0 69 -31 6 -28 29 -48 41 -37 2 3 -18 63 -44 134
-46 120 -69 154 -86 126z m40 -84 c9 -29 19 -59 22 -65 3 -9 -9 -13 -42 -13
-25 0 -46 3 -46 6 0 10 42 124 46 124 1 0 10 -24 20 -52z"/>
<path d="M632 298 c17 -46 38 -105 48 -133 21 -61 47 -67 65 -15 7 19 29 79
48 133 30 83 33 97 18 97 -11 0 -22 -17 -35 -52 -66 -187 -58 -184 -107 -40
-24 69 -37 92 -50 92 -16 0 -14 -8 13 -82z"/>
<path d="M880 245 c0 -113 2 -135 15 -135 13 0 15 22 15 135 0 113 -2 135 -15
135 -13 0 -15 -22 -15 -135z"/>
<path d="M1040 323 c-78 -205 -80 -213 -64 -213 8 0 22 16 30 35 14 34 15 35
73 35 59 0 60 0 71 -35 6 -19 18 -35 26 -35 8 0 14 3 14 8 0 4 -21 64 -47 134
-56 150 -70 159 -103 71z m75 -85 c7 -27 6 -28 -32 -28 -22 0 -42 2 -45 5 -3
3 4 32 16 66 l21 60 17 -38 c9 -21 20 -50 23 -65z"/>
<path d="M1260 365 c7 -8 19 -15 27 -15 13 0 13 3 3 15 -7 8 -19 15 -27 15
-13 0 -13 -3 -3 -15z"/>
<path d="M1592 360 c-46 -43 -23 -92 59 -124 47 -20 54 -26 54 -51 0 -15 -8
-33 -17 -39 -23 -14 -70 3 -83 32 -5 12 -15 22 -22 22 -24 0 -13 -38 18 -64
58 -49 142 -24 142 42 0 42 -21 64 -82 86 -69 24 -80 73 -21 89 22 6 60 -18
60 -39 0 -8 7 -14 15 -14 22 0 19 36 -5 60 -27 27 -89 27 -118 0z"/>
<path d="M1800 245 c0 -113 2 -135 15 -135 12 0 15 15 15 72 l0 72 73 -72 c40
-40 81 -72 92 -72 15 0 1 19 -53 73 l-72 73 60 59 c45 45 57 61 44 63 -10 3
-42 -21 -80 -59 l-64 -63 0 62 c0 48 -3 62 -15 62 -13 0 -15 -22 -15 -135z"/>
<path d="M2060 245 c0 -113 2 -135 15 -135 13 0 15 22 15 135 0 113 -2 135
-15 135 -13 0 -15 -22 -15 -135z"/>
<path d="M2162 248 c3 -110 6 -133 18 -133 12 0 16 20 20 103 l5 103 78 -105
c44 -58 85 -106 93 -106 11 0 14 26 14 135 0 112 -3 135 -15 135 -11 0 -15
-21 -17 -105 l-3 -105 -79 105 c-51 67 -86 105 -98 105 -17 0 -18 -9 -16 -132z"/>
<path d="M1354 335 c-4 -8 -12 -15 -20 -15 -8 0 -14 -5 -14 -11 0 -7 -8 -18
-17 -25 -17 -13 -17 -15 0 -28 9 -7 17 -18 17 -25 0 -6 4 -11 10 -11 5 0 7 8
5 18 -3 9 2 2 10 -15 16 -35 32 -42 41 -18 4 8 12 15 20 15 8 0 14 6 14 14 0
23 26 26 64 5 20 -10 36 -15 36 -9 0 5 -7 10 -16 10 -9 0 -12 5 -8 12 4 7 3 8
-4 4 -7 -4 -12 -2 -12 4 0 7 -7 10 -15 6 -8 -3 -15 -1 -15 5 0 17 -43 28 -60
15 -13 -10 -13 -9 -1 6 7 10 17 15 22 12 5 -3 9 0 9 5 0 6 -6 11 -14 11 -8 0
-16 7 -20 15 -3 8 -10 15 -16 15 -6 0 -13 -7 -16 -15z m-29 -65 c3 -5 1 -10
-4 -10 -6 0 -11 5 -11 10 0 6 2 10 4 10 3 0 8 -4 11 -10z m105 0 c0 -5 -4 -10
-10 -10 -5 0 -10 5 -10 10 0 6 5 10 10 10 6 0 10 -4 10 -10z m-29 -27 c13 -16
12 -17 -3 -4 -17 13 -22 21 -14 21 2 0 10 -8 17 -17z"/>
<path d="M1250 329 c0 -6 -7 -8 -16 -5 -12 5 -15 2 -10 -10 3 -8 6 -20 6 -26
0 -6 9 -8 20 -5 12 3 18 1 14 -5 -4 -6 -1 -9 7 -6 8 3 15 14 17 26 2 12 8 22
13 22 6 0 7 5 4 10 -8 14 -55 13 -55 -1z m27 -14 c0 -8 -4 -15 -9 -15 -4 0 -8
7 -8 15 0 8 4 15 8 15 5 0 9 -7 9 -15z"/>
<path d="M1225 240 c6 -43 82 -120 117 -120 18 0 14 4 -17 19 -49 22 -70 45
-90 97 l-15 39 5 -35z"/>
<path d="M1439 213 c-13 -16 -12 -17 3 -5 9 8 23 10 29 6 8 -4 9 -3 5 4 -10
17 -21 15 -37 -5z"/>
<path d="M1296 178 c4 -5 12 -7 20 -4 7 3 31 -1 52 -8 34 -12 40 -12 48 2 7
10 17 13 29 8 15 -5 16 -9 6 -15 -10 -6 -9 -10 5 -15 9 -3 19 -4 22 -1 3 3 0
5 -7 5 -9 0 -9 5 -1 20 10 18 8 20 -24 20 -19 0 -38 -5 -42 -11 -3 -6 -17 -8
-33 -4 -41 12 -81 13 -75 3z"/>
<path d="M1395 130 c-25 -11 1 -11 35 0 20 6 21 8 5 8 -11 0 -29 -3 -40 -8z"/>
</g>
</svg>
